<?xml version="1.0" encoding="UTF-8"?>
<svg width="177px" height="45px" viewBox="0 0 177 45" version="1.1" xmlns="http://www.w3.org/2000/svg" xmlns:xlink="http://www.w3.org/1999/xlink">
    <!-- Generator: Sketch 50.2 (55047) - http://www.bohemiancoding.com/sketch -->
    <title>logo-singular</title>
    <desc>Created with Sketch.</desc>
    <defs></defs>
    <g id="Logotype" stroke="none" stroke-width="1" fill="none" fill-rule="evenodd">
        <g id="Artboard" transform="translate(-8.000000, -9.000000)" fill="#00BDA0">
            <path d="M18.4329609,54 C15.416186,54 12.9860427,53.14107 11.1424581,51.4231844 C9.04747556,49.4120011 8,46.6676152 8,43.1899441 L8,37.4706704 L14.9134078,37.4706704 L14.9134078,43.1899441 C14.9134078,44.6983316 15.2276505,45.7458071 15.8561453,46.3324022 C16.4008407,46.835198 17.2597707,47.0865922 18.4329609,47.0865922 C19.6480508,47.0865922 20.5069807,46.835198 21.0097765,46.3324022 C21.6382713,45.7877068 21.952514,44.7402312 21.952514,43.1899441 L21.952514,40.424581 C21.952514,38.4971971 21.1773821,36.8212362 19.627095,35.396648 C19.2918978,35.1033505 18.4120183,34.5586632 16.9874302,33.7625698 C15.0181466,32.7150786 13.5726303,31.7933001 12.650838,30.9972067 C11.1424506,29.6564179 9.99022744,28.1271036 9.19413408,26.4092179 C8.39804071,24.6913322 8,22.8477752 8,20.8784916 L8,19.8100559 C8,16.3323848 9.04747556,13.5879989 11.1424581,11.5768156 C12.9860427,9.85892996 15.416186,9 18.4329609,9 C21.4497358,9 23.8798791,9.85892996 25.7234637,11.5768156 C27.8184462,13.5879989 28.8659218,16.3323848 28.8659218,19.8100559 L28.8659218,23.6438547 L21.952514,23.6438547 L21.952514,19.8100559 C21.952514,18.2597688 21.6382713,17.2122932 21.0097765,16.6675978 C20.5069807,16.164802 19.6480508,15.9134078 18.4329609,15.9134078 C17.2597707,15.9134078 16.4008407,16.164802 15.8561453,16.6675978 C15.2276505,17.2541929 14.9134078,18.3016684 14.9134078,19.8100559 L14.9134078,20.8784916 C14.9134078,22.8058756 15.6885397,24.4608869 17.2388268,25.8435754 C17.6578233,26.1787726 18.4748543,26.6815609 19.6899441,27.3519553 C21.868726,28.5251455 23.3770908,29.488823 24.2150838,30.2430168 C27.315658,33.0083937 28.8659218,36.4022145 28.8659218,40.424581 L28.8659218,43.1899441 C28.8659218,46.6676152 27.8184462,49.4120011 25.7234637,51.4231844 C23.8798791,53.14107 21.4497358,54 18.4329609,54 Z M39.0160615,9.5027933 L39.0160615,53.4972067 L32.1026536,53.4972067 L32.1026536,9.5027933 L39.0160615,9.5027933 Z M64.5013966,53.4972067 L60.4790503,53.4972067 L49.9203911,31.1857542 L49.9203911,53.4972067 L43.0069832,53.4972067 L43.0069832,9.5027933 L47.0293296,9.5027933 L57.5879888,31.7513966 L57.5879888,9.5027933 L64.5013966,9.5027933 L64.5013966,53.4972067 Z M78.3596369,54 C75.4266613,54 72.996518,53.14107 71.0691341,51.4231844 C68.9741515,49.3282018 67.926676,46.5838159 67.926676,43.1899441 L67.926676,19.8100559 C67.926676,16.4161841 68.9741515,13.6717982 71.0691341,11.5768156 C72.996518,9.85892996 75.4266613,9 78.3596369,9 C81.3764117,9 83.806555,9.85892996 85.6501397,11.5768156 C87.7451222,13.5879989 88.7925978,16.3323848 88.7925978,19.8100559 L88.7925978,23.7067039 L81.8791899,23.7067039 L81.8791899,19.8100559 C81.8791899,18.2597688 81.5858968,17.2122932 80.9993017,16.6675978 C80.4546062,16.164802 79.5747267,15.9134078 78.3596369,15.9134078 C77.1864466,15.9134078 76.3275167,16.164802 75.7828212,16.6675978 C75.1543265,17.2541929 74.8400838,18.3016684 74.8400838,19.8100559 L74.8400838,43.1899441 C74.8400838,44.6983316 75.1543265,45.7458071 75.7828212,46.3324022 C76.3275167,46.835198 77.1864466,47.0865922 78.3596369,47.0865922 C79.5747267,47.0865922 80.4546062,46.835198 80.9993017,46.3324022 C81.5858968,45.7877068 81.8791899,44.7402312 81.8791899,43.1899441 L81.8791899,34.9567039 L78.422486,34.9567039 L78.422486,28.0432961 L88.7925978,28.0432961 L88.7925978,43.1899441 C88.7925978,46.6676152 87.7451222,49.4120011 85.6501397,51.4231844 C83.806555,53.14107 81.3764117,54 78.3596369,54 Z M102.650838,54 C99.6340631,54 97.2039198,53.14107 95.3603352,51.4231844 C93.2653527,49.4120011 92.2178771,46.6676152 92.2178771,43.1899441 L92.2178771,9.5027933 L99.1312849,9.5027933 L99.1312849,43.1899441 C99.1312849,44.7402312 99.4245781,45.7877068 100.011173,46.3324022 C100.555869,46.835198 101.435748,47.0865922 102.650838,47.0865922 C103.824028,47.0865922 104.682958,46.835198 105.227654,46.3324022 C105.856148,45.7458071 106.170391,44.6983316 106.170391,43.1899441 L106.170391,9.5027933 L113.083799,9.5027933 L113.083799,43.1899441 C113.083799,46.5838159 112.036323,49.3282018 109.941341,51.4231844 C108.013957,53.14107 105.583814,54 102.650838,54 Z M135.238128,46.5837989 L135.238128,53.4972067 L117.011872,53.4972067 L117.011872,9.5027933 L123.925279,9.5027933 L123.925279,46.5837989 L135.238128,46.5837989 Z M152.930168,46.5209497 L145.011173,46.5209497 L143.75419,53.4972067 L136.715084,53.4972067 L145.513966,9.5027933 L152.427374,9.5027933 L161.226257,53.4972067 L154.187151,53.4972067 L152.930168,46.5209497 Z M151.736034,39.6075419 L148.97067,23.8324022 L146.205307,39.6075419 L151.736034,39.6075419 Z M184.511872,53.4972067 L177.472765,53.4972067 L173.890363,35.8365922 L170.747905,35.8365922 L170.747905,53.4972067 L163.834497,53.4972067 L163.834497,9.5027933 L174.267458,9.5027933 C177.242333,9.5027933 179.672477,10.3826728 181.557961,12.1424581 C183.652943,14.069842 184.700419,16.7932785 184.700419,20.3128492 L184.700419,25.0265363 C184.700419,28.5880066 183.652943,31.3323926 181.557961,33.2597765 C181.264663,33.5530741 180.929471,33.8254177 180.552374,34.0768156 L184.511872,53.4972067 Z M177.787011,20.3128492 C177.787011,18.8463614 177.472769,17.7988858 176.844274,17.1703911 C176.299578,16.6675953 175.440648,16.4162011 174.267458,16.4162011 L170.747905,16.4162011 L170.747905,28.9231844 L174.267458,28.9231844 C175.440648,28.9231844 176.299578,28.6717902 176.844274,28.1689944 C177.472769,27.5823993 177.787011,26.5349237 177.787011,25.0265363 L177.787011,20.3128492 Z" id="logo-singular"></path>
        </g>
    </g>
</svg>